{
    "asset" : {
        "generator" : "Khronos glTF Blender I/O v3.2.43",
        "version" : "2.0"
    },
    "scene" : 0,
    "scenes" : [
        {
            "name" : "Scene",
            "nodes" : [
                1
            ]
        }
    ],
    "nodes" : [
        {
            "mesh" : 0,
            "name" : "Mball.006",
            "rotation" : [
                0.02396806888282299,
                0.11384985595941544,
                -0.5922912359237671,
                0.7972796559333801
            ],
            "scale" : [
                -0.10000000149011612,
                -0.10000000149011612,
                -0.10000000894069672
            ],
            "translation" : [
                1.3247654438018799,
                0.7438889741897583,
                -0.08160983771085739
            ]
        },
        {
            "children" : [
                0
            ],
            "mesh" : 1,
            "name" : "Earth",
            "rotation" : [
                0,
                -0.012614305131137371,
                0,
                0.9999204277992249
            ]
        }
    ],
    "animations" : [
        {
            "channels" : [
                {
                    "sampler" : 0,
                    "target" : {
                        "node" : 1,
                        "path" : "rotation"
                    }
                }
            ],
            "name" : "EarthAction.001",
            "samplers" : [
                {
                    "input" : 7,
                    "interpolation" : "LINEAR",
                    "output" : 8
                }
            ]
        },
        {
            "channels" : [
                {
                    "sampler" : 0,
                    "target" : {
                        "node" : 0,
                        "path" : "rotation"
                    }
                }
            ],
            "name" : "Mball.006Action",
            "samplers" : [
                {
                    "input" : 9,
                    "interpolation" : "STEP",
                    "output" : 10
                }
            ]
        }
    ],
    "materials" : [
        {
            "doubleSided" : true,
            "name" : "EarthMaterial.001",
            "pbrMetallicRoughness" : {
                "baseColorTexture" : {
                    "index" : 0
                },
                "metallicFactor" : 0,
                "roughnessFactor" : 0.5
            }
        }
    ],
    "meshes" : [
        {
            "name" : "Mesh",
            "primitives" : [
                {
                    "attributes" : {
                        "POSITION" : 0,
                        "NORMAL" : 1
                    },
                    "indices" : 2
                }
            ]
        },
        {
            "name" : "Sphere.002",
            "primitives" : [
                {
                    "attributes" : {
                        "POSITION" : 3,
                        "NORMAL" : 4,
                        "TEXCOORD_0" : 5
                    },
                    "indices" : 6,
                    "material" : 0
                }
            ]
        }
    ],
    "textures" : [
        {
            "sampler" : 0,
            "source" : 0
        }
    ],
    "images" : [
        {
            "bufferView" : 7,
            "mimeType" : "image/jpeg",
            "name" : "1"
        }
    ],
    "accessors" : [
        {
            "bufferView" : 0,
            "componentType" : 5126,
            "count" : 1686,
            "max" : [
                2.711367607116699,
                7.968781471252441,
                10.220972061157227
            ],
            "min" : [
                -9.437932968139648,
                -1.482858419418335,
                -10.602094650268555
            ],
            "type" : "VEC3"
        },
        {
            "bufferView" : 1,
            "componentType" : 5126,
            "count" : 1686,
            "type" : "VEC3"
        },
        {
            "bufferView" : 2,
            "componentType" : 5123,
            "count" : 10080,
            "type" : "SCALAR"
        },
        {
            "bufferView" : 3,
            "componentType" : 5126,
            "count" : 1984,
            "max" : [
                0.9999997019767761,
                1,
                0.9999994039535522
            ],
            "min" : [
                -0.9999990463256836,
                -1,
                -0.9999987483024597
            ],
            "type" : "VEC3"
        },
        {
            "bufferView" : 4,
            "componentType" : 5126,
            "count" : 1984,
            "type" : "VEC3"
        },
        {
            "bufferView" : 5,
            "componentType" : 5126,
            "count" : 1984,
            "type" : "VEC2"
        },
        {
            "bufferView" : 6,
            "componentType" : 5123,
            "count" : 2880,
            "type" : "SCALAR"
        },
        {
            "bufferView" : 8,
            "componentType" : 5126,
            "count" : 250,
            "max" : [
                10.416666666666666
            ],
            "min" : [
                0.041666666666666664
            ],
            "type" : "SCALAR"
        },
        {
            "bufferView" : 9,
            "componentType" : 5126,
            "count" : 250,
            "type" : "VEC4"
        },
        {
            "bufferView" : 10,
            "componentType" : 5126,
            "count" : 1,
            "max" : [
                0
            ],
            "min" : [
                0
            ],
            "type" : "SCALAR"
        },
        {
            "bufferView" : 11,
            "componentType" : 5126,
            "count" : 1,
            "type" : "VEC4"
        }
    ],
    "bufferViews" : [
        {
            "buffer" : 0,
            "byteLength" : 20232,
            "byteOffset" : 0
        },
        {
            "buffer" : 0,
            "byteLength" : 20232,
            "byteOffset" : 20232
        },
        {
            "buffer" : 0,
            "byteLength" : 20160,
            "byteOffset" : 40464
        },
        {
            "buffer" : 0,
            "byteLength" : 23808,
            "byteOffset" : 60624
        },
        {
            "buffer" : 0,
            "byteLength" : 23808,
            "byteOffset" : 84432
        },
        {
            "buffer" : 0,
            "byteLength" : 15872,
            "byteOffset" : 108240
        },
        {
            "buffer" : 0,
            "byteLength" : 5760,
            "byteOffset" : 124112
        },
        {
            "buffer" : 0,
            "byteLength" : 344080,
            "byteOffset" : 129872
        },
        {
            "buffer" : 0,
            "byteLength" : 1000,
            "byteOffset" : 473952
        },
        {
            "buffer" : 0,
            "byteLength" : 4000,
            "byteOffset" : 474952
        },
        {
            "buffer" : 0,
            "byteLength" : 4,
            "byteOffset" : 478952
        },
        {
            "buffer" : 0,
            "byteLength" : 16,
            "byteOffset" : 478956
        }
    ],
    "samplers" : [
        {
            "magFilter" : 9729,
            "minFilter" : 9987
        }
    ],
    "buffers" : [
        {
            "byteLength" : 478972,
            "uri" : "data:application/octet-stream;base64,"
        }
    ]
}
